<svg width="151" height="32" viewBox="0 0 151 32" fill="none" xmlns="http://www.w3.org/2000/svg">
<g clip-path="url(#clip0_136_140)">
<path fill-rule="evenodd" clip-rule="evenodd" d="M16.4959 3.6536L18.6055 0L24.5863 3.4536L22.4775 7.1064C22.1071 7.7472 22.6615 8.5264 23.3879 8.3864L27.4295 7.6064L28.7375 14.388L24.6959 15.1672C18.1583 16.428 13.1671 9.42 16.4959 3.6536Z" fill="white"/>
<path fill-rule="evenodd" clip-rule="evenodd" d="M12.8416 28.3461L10.732 31.9997L4.75038 28.5469L6.85998 24.8933C7.23038 24.2525 6.67598 23.4733 5.94878 23.6133L1.90798 24.3925L0.599976 17.6117L4.64158 16.8325C11.1792 15.5717 16.1696 22.5797 12.8416 28.3461Z" fill="white"/>
<path fill-rule="evenodd" clip-rule="evenodd" d="M13.0241 3.6536L10.9153 0L4.93372 3.4536L7.04332 7.1064C7.41292 7.7472 6.85932 8.5264 6.13212 8.3864L2.09052 7.6064L0.784119 14.388L4.82492 15.1672C11.3633 16.428 16.3545 9.42 13.0249 3.6536H13.0241Z" fill="white"/>
<path fill-rule="evenodd" clip-rule="evenodd" d="M16.3203 28.3461L18.4283 31.9997L24.4099 28.5469L22.3003 24.8933C21.9307 24.2525 22.4843 23.4733 23.2115 23.6133L27.2523 24.3925L28.5603 17.6117L24.5187 16.8325C17.9811 15.5717 12.9907 22.5797 16.3187 28.3461H16.3203Z" fill="white"/>
<path d="M131.091 24.1222V17.3222C131.091 16.3798 131.308 15.5342 131.742 14.7862C132.19 14.023 132.826 13.4246 133.65 12.9902C134.473 12.5566 135.453 12.3398 136.59 12.3398C137.12 12.3347 137.649 12.4025 138.161 12.5414C138.64 12.6614 139.074 12.8334 139.462 13.0574C139.866 13.267 140.21 13.5214 140.495 13.8206H140.54C140.845 13.5172 141.193 13.26 141.572 13.0574C141.989 12.828 142.434 12.6545 142.897 12.5414C143.417 12.4035 143.953 12.3357 144.49 12.3398C145.627 12.3398 146.607 12.5558 147.43 12.9902C148.253 13.4246 148.889 14.0222 149.338 14.7862C149.787 15.5342 150.011 16.379 150.011 17.3222V24.1222H146.51V17.4342C146.51 17.0606 146.413 16.7238 146.218 16.4246C146.04 16.1117 145.785 15.8491 145.478 15.6614C145.153 15.4641 144.78 15.3629 144.4 15.3694C143.996 15.3694 143.63 15.467 143.301 15.6614C142.993 15.8489 142.738 16.1115 142.56 16.4246C142.379 16.7298 142.285 17.0792 142.29 17.4342V24.1222H138.812V17.4342C138.812 17.0606 138.714 16.7238 138.52 16.4246C138.338 16.1072 138.074 15.8438 137.757 15.6614C137.432 15.4641 137.059 15.3629 136.679 15.3694C136.275 15.3694 135.909 15.467 135.58 15.6614C135.272 15.8489 135.017 16.1115 134.839 16.4246C134.658 16.7299 134.565 17.0793 134.57 17.4342V24.1222H131.091ZM123.482 24.3918C122.301 24.3918 121.275 24.1678 120.408 23.7182C119.555 23.2542 118.897 22.6334 118.433 21.8558C117.969 21.063 117.737 20.187 117.737 19.2294V12.6086H121.216V19.1398C121.216 19.5438 121.313 19.9182 121.507 20.2622C121.702 20.591 121.964 20.8606 122.293 21.0702C122.637 21.2646 123.026 21.3622 123.46 21.3622C123.879 21.3622 124.253 21.2646 124.582 21.0702C124.926 20.8606 125.196 20.591 125.39 20.2622C125.585 19.9182 125.682 19.5438 125.682 19.1398V12.6086H129.161V19.2294C129.161 20.187 128.936 21.063 128.487 21.8558C128.038 22.6334 127.388 23.255 126.535 23.7182C125.697 24.167 124.679 24.3918 123.482 24.3918ZM106.531 24.1222V21.3622H112.075C112.225 21.3622 112.359 21.3318 112.479 21.2718C112.598 21.1974 112.696 21.0998 112.77 20.9806C112.844 20.8627 112.883 20.7267 112.883 20.5878C112.883 20.449 112.844 20.3129 112.77 20.195C112.7 20.0797 112.6 19.9862 112.479 19.9254C112.358 19.8503 112.218 19.8114 112.075 19.8134H110.055C109.306 19.8134 108.626 19.6934 108.013 19.4542C107.431 19.2131 106.931 18.8075 106.576 18.287C106.232 17.7486 106.06 17.0526 106.06 16.1998C106.06 15.5414 106.217 14.943 106.531 14.4046C106.858 13.8679 107.313 13.4204 107.855 13.1022C108.421 12.7739 109.064 12.6035 109.718 12.6086H115.262V15.3918H110.257C110.058 15.3878 109.865 15.4603 109.718 15.5942C109.653 15.6584 109.601 15.7352 109.566 15.8201C109.531 15.905 109.514 15.9961 109.516 16.0878C109.516 16.2974 109.584 16.4766 109.718 16.6262C109.865 16.7602 110.058 16.8326 110.257 16.8286H112.232C113.07 16.8286 113.788 16.9558 114.386 17.2094C115 17.4494 115.471 17.8382 115.801 18.3774C116.145 18.9158 116.317 19.611 116.317 20.4638C116.317 21.1374 116.145 21.751 115.801 22.3038C115.474 22.8549 115.01 23.3114 114.454 23.6286C113.9 23.9582 113.272 24.1222 112.569 24.1222H106.531ZM98.952 12.3398C99.9248 12.3398 100.785 12.4966 101.533 12.811C102.268 13.0912 102.928 13.5365 103.463 14.1126C104.009 14.6771 104.429 15.3501 104.698 16.0878C104.982 16.8358 105.124 17.6662 105.124 18.579C105.124 19.7158 104.885 20.7262 104.406 21.6086C103.963 22.4543 103.295 23.1611 102.476 23.651C101.653 24.1446 100.695 24.3918 99.6032 24.3918C99.1392 24.3918 98.6976 24.3318 98.2784 24.2126C97.8813 24.0959 97.5035 23.9218 97.1568 23.6958C96.8299 23.4741 96.5481 23.1923 96.3264 22.8654H96.2584V28.9934H92.78V18.5782C92.78 17.3062 93.0344 16.2062 93.5432 15.279C94.0364 14.3664 94.7851 13.6174 95.6976 13.1238C96.6256 12.6006 97.7104 12.339 98.952 12.339V12.3398ZM98.952 15.347C98.4136 15.347 97.9424 15.4814 97.5384 15.751C97.1488 16.0054 96.8496 16.3646 96.64 16.8286C96.4312 17.2766 96.3264 17.7862 96.3264 18.3542C96.3264 18.923 96.4312 19.4318 96.64 19.8806C96.8496 20.3294 97.1488 20.6886 97.5384 20.9582C97.9424 21.2126 98.4136 21.3398 98.952 21.3398C99.4904 21.3398 99.9544 21.2118 100.343 20.9582C100.734 20.6867 101.045 20.3143 101.242 19.8806C101.466 19.4318 101.578 18.923 101.578 18.3542C101.578 17.7862 101.466 17.2774 101.242 16.8286C101.032 16.3646 100.733 16.0046 100.343 15.751C99.9544 15.4814 99.4904 15.347 98.952 15.347ZM87.4936 24.1222V12.6086H90.9952V24.1222H87.4936ZM89.244 11.307C88.6904 11.307 88.212 11.1054 87.808 10.7014C87.404 10.2974 87.2016 9.81823 87.2016 9.26463C87.2016 8.71103 87.404 8.23263 87.808 7.82863C88.212 7.40943 88.6904 7.19983 89.244 7.19983C89.7976 7.19983 90.2768 7.40943 90.6808 7.82863C91.0848 8.23263 91.2864 8.71103 91.2864 9.26463C91.2864 9.81823 91.0848 10.2966 90.6808 10.7014C90.2768 11.1054 89.7976 11.307 89.244 11.307ZM79.884 24.3918C78.7024 24.3918 77.64 24.1302 76.6968 23.6062C75.7715 23.099 74.9972 22.3557 74.4528 21.4518C73.9144 20.539 73.6448 19.5142 73.6448 18.3766C73.6448 17.2246 73.9144 16.1998 74.4528 15.3022C74.9972 14.3984 75.7715 13.655 76.6968 13.1478C77.64 12.6086 78.7024 12.3398 79.884 12.3398C81.0664 12.3398 82.1208 12.6086 83.0488 13.1478C83.9708 13.6515 84.7386 14.3961 85.2704 15.3022C85.824 16.1998 86.1008 17.2246 86.1008 18.3766C86.1008 19.5142 85.824 20.539 85.2704 21.4518C84.7386 22.3579 83.9708 23.1026 83.0488 23.6062C82.1064 24.1302 81.0512 24.3918 79.884 24.3918ZM79.884 21.3622C80.4376 21.3622 80.9168 21.227 81.3208 20.9582C81.7249 20.6889 82.0501 20.317 82.2632 19.8806C82.488 19.4318 82.6 18.923 82.6 18.3542C82.6 17.8006 82.488 17.2998 82.2632 16.8502C82.05 16.4141 81.7248 16.0425 81.3208 15.7734C80.9168 15.5038 80.4376 15.3694 79.884 15.3694C79.3304 15.3694 78.844 15.5038 78.4256 15.7734C78.0213 16.0428 77.6958 16.4146 77.4824 16.851C77.2538 17.319 77.1387 17.8343 77.1464 18.355C77.1464 18.923 77.2584 19.4318 77.4824 19.8806C77.6958 20.317 78.0213 20.6889 78.4256 20.9582C78.844 21.227 79.3304 21.3622 79.884 21.3622ZM62.3392 28.679V25.6934H68.084C68.3088 25.6934 68.496 25.619 68.6456 25.4694C68.7185 25.405 68.7764 25.3253 68.8151 25.236C68.8538 25.1467 68.8724 25.0499 68.8696 24.9526V22.4166H68.8024C68.5182 22.7471 68.1941 23.0411 67.8376 23.2918C67.508 23.5318 67.1336 23.711 66.7152 23.831C66.2699 23.9562 65.8089 24.0165 65.3464 24.0102C64.3288 24.0102 63.416 23.7702 62.608 23.2918C61.8152 22.7982 61.1864 22.1174 60.7224 21.2494C60.2744 20.3822 60.0496 19.3942 60.0496 18.287C60.0496 17.195 60.2816 16.1998 60.7456 15.3022C61.224 14.4046 61.92 13.6862 62.8328 13.1478C63.7448 12.6086 64.86 12.3398 66.1768 12.3398C67.4336 12.3398 68.5184 12.6014 69.4312 13.1254C70.3478 13.623 71.0972 14.3799 71.5856 15.3014C72.0944 16.2294 72.3488 17.3222 72.3488 18.579V25.3118C72.3488 26.3438 72.0424 27.1598 71.4288 27.7582C70.8304 28.3718 70 28.6782 68.9376 28.6782L62.3392 28.679ZM66.1992 21.0926C66.7376 21.0926 67.2016 20.9726 67.5912 20.7334C67.9756 20.4838 68.2854 20.135 68.488 19.7238C68.7008 19.291 68.8085 18.8141 68.8024 18.3318C68.8024 17.7934 68.6984 17.2998 68.4888 16.851C68.2792 16.4022 67.98 16.0502 67.5904 15.7958C67.2016 15.5262 66.7376 15.3918 66.1984 15.3918C65.6752 15.3918 65.2112 15.519 64.8072 15.7734C64.4184 16.0278 64.1192 16.3718 63.9096 16.8054C63.7008 17.2398 63.596 17.7254 63.596 18.2646C63.596 18.7886 63.7 19.267 63.9096 19.7014C64.1192 20.1198 64.4184 20.4566 64.808 20.711C65.2112 20.9654 65.6752 21.0926 66.1992 21.0926ZM52.9784 24.3918C51.7968 24.3918 50.7344 24.1302 49.792 23.6062C48.8664 23.0992 48.0918 22.3558 47.5472 21.4518C47.0088 20.539 46.7392 19.5142 46.7392 18.3766C46.7392 17.2246 47.0088 16.1998 47.5472 15.3022C48.0918 14.3982 48.8664 13.6548 49.792 13.1478C50.7344 12.6086 51.7968 12.3398 52.9784 12.3398C54.1608 12.3398 55.2152 12.6086 56.1432 13.1478C57.0651 13.6516 57.833 14.3962 58.3648 15.3022C58.9184 16.1998 59.1952 17.2246 59.1952 18.3766C59.1952 19.5142 58.9184 20.539 58.3648 21.4518C57.833 22.3579 57.0651 23.1025 56.1432 23.6062C55.2008 24.1302 54.1456 24.3918 52.9784 24.3918ZM52.9784 21.3622C53.532 21.3622 54.0104 21.227 54.4152 20.9582C54.8191 20.6887 55.1443 20.3169 55.3576 19.8806C55.5816 19.4318 55.6936 18.923 55.6936 18.3542C55.6936 17.8006 55.5816 17.2998 55.3576 16.8502C55.1442 16.4142 54.819 16.0427 54.4152 15.7734C54.0112 15.5038 53.532 15.3694 52.9784 15.3694C52.4248 15.3694 51.9384 15.5038 51.52 15.7734C51.1157 16.0428 50.7902 16.4146 50.5768 16.851C50.3482 17.319 50.2331 17.8343 50.2408 18.355C50.2408 18.923 50.3528 19.4318 50.5768 19.8806C50.7902 20.317 51.1157 20.6889 51.52 20.9582C51.9384 21.227 52.4248 21.3622 52.9784 21.3622ZM41.8376 24.1222C40.8648 24.1222 40.012 23.9062 39.2792 23.4718C38.5664 23.0586 37.9775 22.4619 37.5736 21.7438C37.1696 21.0254 36.9672 20.2318 36.9672 19.3646V8.41183H40.7376V19.6334C40.7376 19.9934 40.8656 20.307 41.1192 20.5766C41.3736 20.8454 41.6872 20.9806 42.0616 20.9806H46.2136V24.1222H41.8376Z" fill="white"/>
</g>
<defs>
<clipPath id="clip0_136_140">
<rect width="149.6" height="32" fill="white" transform="translate(0.599976)"/>
</clipPath>
</defs>
</svg>
