<svg width="66" height="32" viewBox="0 0 66 32" fill="none" xmlns="http://www.w3.org/2000/svg">
<g clip-path="url(#clip0_136_138)">
<path d="M54.476 24.432C49.4304 24.432 45.58 20.5144 45.58 15.7344C45.58 10.9872 49.464 7.0704 54.476 7.0704C59.5552 7.0704 63.4056 11.0208 63.4056 15.7344C63.4056 20.5144 59.5216 24.4312 54.476 24.4312V24.432ZM54.476 20.016C56.9 20.016 58.692 18.0912 58.692 15.768C58.692 13.444 56.9 11.5184 54.476 11.5184C52.0528 11.5184 50.2936 13.444 50.2936 15.7672C50.2936 18.0912 52.0528 20.016 54.476 20.016ZM34.464 32C30.6136 32 27.6592 30.3072 26.1656 27.2528L30.0824 25.1288C30.8128 26.556 32.1736 27.6848 34.3976 27.6848C37.1864 27.6848 39.0776 25.7264 39.0776 22.5064V22.2072C38.1816 23.336 36.5888 24.1992 34.2648 24.1992C29.6504 24.1992 25.9664 20.6144 25.9664 15.7344C25.9664 10.9872 29.8168 7.104 34.8624 7.104C40.0072 7.104 43.792 10.788 43.792 15.7344V22.3736C43.792 28.216 39.808 32 34.464 32ZM34.796 19.7512C37.1528 19.7512 39.012 17.9912 39.012 15.6352C39.012 13.2776 37.1528 11.552 34.796 11.552C32.472 11.552 30.6136 13.2784 30.6136 15.6352C30.6136 17.992 32.472 19.7512 34.796 19.7512ZM16.0592 24.432C11.0136 24.432 7.1632 20.5144 7.1632 15.7344C7.1632 10.9872 11.0464 7.0704 16.0592 7.0704C21.1376 7.0704 24.9888 11.0208 24.9888 15.7344C24.9888 20.5144 21.1048 24.4312 16.0592 24.4312V24.432ZM16.0592 20.016C18.4824 20.016 20.2752 18.0912 20.2752 15.768C20.2752 13.444 18.4824 11.5184 16.0592 11.5184C13.6352 11.5184 11.8768 13.444 11.8768 15.7672C11.8768 18.0912 13.636 20.016 16.0592 20.016ZM0 0H4.7136V24H0V0ZM65.6 5.2C65.6 5.73043 65.3893 6.23914 65.0142 6.61421C64.6392 6.98929 64.1304 7.2 63.6 7.2C63.0696 7.2 62.5609 6.98929 62.1858 6.61421C61.8107 6.23914 61.6 5.73043 61.6 5.2C61.6 4.66957 61.8107 4.16086 62.1858 3.78579C62.5609 3.41071 63.0696 3.2 63.6 3.2C64.1304 3.2 64.6392 3.41071 65.0142 3.78579C65.3893 4.16086 65.6 4.66957 65.6 5.2Z" fill="white"/>
</g>
<defs>
<clipPath id="clip0_136_138">
<rect width="65.6" height="32" fill="white"/>
</clipPath>
</defs>
</svg>
