<svg width="141" height="32" viewBox="0 0 141 32" fill="none" xmlns="http://www.w3.org/2000/svg">
<g clip-path="url(#clip0_136_153)">
<path d="M136.715 6.13132L140.054 9.49344C140.171 9.58632 140.258 9.71168 140.302 9.85368C140.37 10.6812 139.744 10.7265 139.104 10.7727C138.827 10.7927 138.548 10.813 138.322 10.8968C137.198 11.2007 136.197 11.8426 135.452 12.7354C134.706 13.6282 134.254 14.7287 134.156 15.8874C134.084 16.0213 133.975 16.1314 133.842 16.2046C133.709 16.2779 133.558 16.311 133.406 16.3002C133.23 16.2846 133.065 16.2076 132.94 16.0826L131.844 14.979C131.852 15.0546 131.852 15.1294 131.852 15.1895V15.9174C131.852 15.9634 131.854 16.0078 131.848 16.052C131.841 16.1016 131.824 16.151 131.785 16.2026V16.2702C131.785 16.3046 131.789 16.3367 131.793 16.3693C131.801 16.4359 131.81 16.5046 131.785 16.6004C131.761 16.6898 131.758 16.794 131.755 16.887C131.754 16.9423 131.753 16.9937 131.747 17.0356C131.739 17.0938 131.739 17.1558 131.734 17.2178C131.73 17.2759 131.72 17.3339 131.694 17.3883C131.659 17.4645 131.647 17.5372 131.644 17.6111C131.642 17.6465 131.642 17.6821 131.642 17.7186L131.597 17.9512L129.894 26.0713L129.758 26.6791L129.706 27.5647L128.955 31.3996L128.835 32H68.0999L67.8072 31.7073L67.7546 31.9625H61.2556L57.6383 28.3227L57.9835 26.6791H55.9422L54.674 25.3958C53.1 26.542 51.1948 27.1428 49.248 27.107C47.1554 27.1893 45.1153 26.439 43.5745 25.0206L41.6008 23.0319L41.173 25.0281C41.1205 25.3133 41.0529 25.5835 40.9779 25.8462L40.9104 26.0938L40.7978 26.454C40.7885 26.4853 40.7759 26.5155 40.7603 26.5441C40.6485 26.875 40.5157 27.1983 40.3625 27.5122C40.3665 27.5243 40.3665 27.5375 40.3625 27.5497C40.3428 27.5913 40.3203 27.6314 40.2949 27.6698C40.1816 27.894 40.0564 28.1119 39.9197 28.3227C39.8944 28.361 39.8718 28.4012 39.8522 28.4428L39.7696 28.5328C39.5862 28.7959 39.3856 29.0466 39.1692 29.2833C39.1099 29.3426 39.0505 29.3984 38.9902 29.4531C38.9286 29.5091 38.866 29.5641 38.8015 29.621L38.6364 29.7786C38.5324 29.865 38.4259 29.9485 38.3172 30.0289C38.2275 30.0952 38.1363 30.1594 38.0436 30.2214C36.4969 31.1378 34.7128 31.5739 32.9179 31.4746C30.4413 31.4746 28.46 30.7542 27.2067 29.4934L23.6795 25.9437C22.2707 26.741 20.6754 27.1502 19.0567 27.1294C16.9703 27.194 14.9426 26.4336 13.4131 25.0131L11.4395 23.0244L10.8015 26.0938L10.6739 26.7017H4.03231L0.400024 23.0394L0.587641 22.1538L4.58015 2.97934L4.70019 2.37898H11.3643L11.537 2.5441V2.37898H56.4376L56.6027 2.5441V2.37898H63.1017L66.734 6.04126L66.5539 6.9193L66.3588 7.87992H68.2274L68.5201 8.17264C69.3424 7.69075 70.2763 7.43204 71.2293 7.42215C71.9301 7.40831 72.626 7.54142 73.2723 7.81286C73.9186 8.08432 74.5008 8.488 74.9816 8.99808L74.884 8.88552L76.6476 10.6642C77.7208 8.64544 80.1298 7.42215 83.4016 7.42215C85.9384 7.42215 87.8072 8.06752 88.94 9.23824L90.216 10.5216L90.644 8.45776L90.7712 7.85738H97.2776L99.1392 9.72608L99.4016 8.46528L99.5296 7.8649H112.333L112.678 8.21016C113.545 7.69845 114.538 7.43854 115.545 7.45966C116.15 7.43602 116.754 7.54692 117.312 7.78438C117.87 8.02184 118.368 8.38 118.771 8.83304C118.75 8.80944 118.73 8.78584 118.71 8.76264C118.674 8.7196 118.638 8.6776 118.6 8.63872L119.252 9.2908C119.82 8.70256 120.503 8.23672 121.258 7.92188C122.013 7.60702 122.824 7.44968 123.642 7.45966C124.076 7.43296 124.51 7.46992 124.93 7.56826L124.22 6.85178C124.123 6.74822 124.058 6.61937 124.031 6.48017C124.005 6.34097 124.018 6.19705 124.07 6.06518C124.122 5.93326 124.21 5.81874 124.324 5.73483C124.438 5.65092 124.574 5.60103 124.715 5.591H125.286C125.439 5.57634 125.592 5.55381 125.743 5.52344C126.541 5.35579 127.291 5.01299 127.94 4.51976C128.59 4.02658 129.121 3.39534 129.496 2.67167C129.529 2.6157 129.558 2.55812 129.586 2.49907V2.46156C129.844 1.90572 130.001 1.30865 130.051 0.697933C130.064 0.508162 130.15 0.330485 130.289 0.200949C130.428 0.0713663 130.611 -0.000455872 130.802 2.1775e-06H130.862C130.975 0.0108122 131.086 0.0475478 131.183 0.107369C131.281 0.167236 131.363 0.248586 131.425 0.345234C131.965 0.870568 134.966 3.92494 134.966 3.92494C135.217 4.1939 135.198 4.54308 135.179 4.89637C135.167 5.11482 135.155 5.33486 135.206 5.53846C135.343 5.56297 135.482 5.58152 135.619 5.59407C135.752 5.60602 135.885 5.61253 136.018 5.6135C136.173 5.61674 136.324 5.66832 136.449 5.76112C136.574 5.85388 136.667 5.98328 136.715 6.13132Z" fill="white"/>
<path d="M34.7486 8.6002H39.4916L36.8349 21.2005C36.3472 23.587 35.4166 24.9529 34.0057 25.921C32.5786 26.7491 30.94 27.1404 29.2928 27.0467C26.1558 27.0467 23.1464 25.7334 22.8462 22.5439H27.6192C27.7693 23.2944 28.4598 23.7221 29.5104 23.7221C30.9288 23.7221 31.5817 22.8666 31.8744 21.5232L32.1595 20.1348H32.0545C31.6357 20.5952 31.1277 20.9656 30.5613 21.2236C29.9949 21.4816 29.3821 21.6219 28.7599 21.6358C25.9982 21.6358 23.8068 19.4369 23.8518 16.2174C23.9119 12.4651 26.3584 8.20244 30.4635 8.20244C31.2414 8.15004 32.0181 8.32148 32.7017 8.69652C33.3853 9.07148 33.9471 9.63444 34.3209 10.3188H34.4034L34.7486 8.6002ZM30.6736 18.1161C32.4973 18.1161 33.5104 16.0148 33.5404 14.2062C33.5404 12.998 33.0676 11.7596 31.6718 11.7596C29.7655 11.7596 28.7974 13.8835 28.7674 15.7071C28.7674 16.9379 29.2402 18.1161 30.6361 18.1161M83.9198 18.5214C83.9198 19.3244 83.2286 19.6471 82.3206 19.6471C80.8198 19.6471 80.3171 18.8966 80.3096 17.846H75.5892C75.5066 21.7634 79.0038 22.7315 82.111 22.7315C86.0806 22.7315 88.655 21.0129 88.7078 17.5833C88.7078 14.844 86.3734 14.0111 84.0774 13.4782C82.3134 13.073 81.5405 12.7803 81.5477 12.1124C81.5557 11.4444 82.3438 11.1743 83.1166 11.1743C84.0846 11.1743 84.7446 11.5195 84.8126 12.4051H89.3982C89.3454 9.133 86.3957 8.17244 83.3941 8.17244C79.7468 8.17244 76.9025 9.83092 76.8574 12.9679C76.8574 15.4369 78.5235 16.345 81.0373 16.9904C82.6509 17.4182 83.9342 17.5532 83.9198 18.5214ZM118.989 10.634H118.906C118.702 9.89492 118.251 9.24796 117.629 8.8002C117.006 8.35252 116.249 8.131 115.484 8.17244C113.443 8.17244 112.197 9.18556 111.019 10.7165H110.937L111.372 8.6002H106.598L103.739 22.2737H108.73L110.231 14.8966C110.576 13.2906 111.394 12.1649 112.633 12.1649C113.871 12.1649 114.036 13.1555 113.781 14.3638L112.129 22.2737H117.12L118.621 14.8966C118.966 13.1856 119.785 12.1649 121.022 12.1649C122.261 12.1649 122.426 13.103 122.171 14.3638L120.52 22.2737H125.51L127.297 14.1461C128.047 10.7165 126.899 8.14236 123.605 8.14236C122.688 8.1386 121.785 8.36468 120.979 8.79996C120.173 9.23524 119.489 9.8658 118.989 10.634ZM1.31528 22.2737H6.471L10.456 3.09924H5.30777L1.31528 22.2737ZM16.835 8.19492C20.3171 8.19492 23.6417 10.1011 23.5892 14.4163C23.5441 19.1368 20.3321 22.6715 15.4241 22.6715C12.0469 22.6715 8.66991 20.7953 8.72991 16.5026C8.81247 11.8948 11.9794 8.19492 16.835 8.19492ZM15.5667 19.3244C17.7656 19.3244 18.5686 16.1348 18.5686 14.2587C18.5686 12.9154 18.1558 11.602 16.7074 11.602C14.531 11.602 13.7881 14.9792 13.7881 16.7203C13.7881 18.1161 14.1783 19.3244 15.5967 19.3244M12.1745 3.09924L11.4241 6.93414H54.7186L55.4691 3.09924H12.1745ZM46.9963 8.19492C50.4785 8.19492 53.803 10.1011 53.7506 14.4163C53.7055 19.1368 50.486 22.6715 45.5779 22.6715C42.2008 22.6715 38.8237 20.7953 38.8913 16.5026C38.9963 11.8948 42.1633 8.19492 46.9963 8.19492ZM45.7505 19.3244C47.9494 19.3244 48.7524 16.1348 48.7524 14.2587C48.7524 12.9154 48.3322 11.602 46.8838 11.602C44.7149 11.602 43.9644 14.9792 43.9644 16.7203C43.9644 18.1161 44.3546 19.3244 45.7806 19.3244M57.2402 3.09924L56.4898 6.93414H61.4729L62.2234 3.09924H57.2402ZM53.2477 22.2737H58.2383L61.0976 8.6002H56.0769L53.2477 22.2737ZM69.1726 22.7315C68.3784 22.7879 67.5841 22.6219 66.8788 22.252C66.1736 21.8822 65.5854 21.3232 65.1802 20.6377H65.0976L63.5967 27.557H58.546L62.5985 8.6002H67.3415L66.9663 10.4238C67.4616 9.7502 68.1032 9.19764 68.8428 8.80764C69.5824 8.41772 70.4008 8.20052 71.2365 8.17244C74.2383 8.17244 76.0019 10.7465 75.9494 14.0936C75.8818 18.3037 73.698 22.7315 69.1426 22.7315H69.1726ZM68.9775 12.0448C67.0489 12.0448 65.8631 14.5139 65.8331 16.4126C65.8331 17.7334 66.2984 19.2043 67.8818 19.2043C69.9457 19.2043 70.7937 16.4726 70.8162 14.6489C70.8162 13.4107 70.456 12.0448 68.9775 12.0448ZM97.8334 20.1199H97.9157L97.4805 22.2888H102.223L105.083 8.61516H100.1L98.5086 16.2549C98.1862 17.8384 97.2101 18.6715 95.9797 18.6715C94.7485 18.6715 94.4781 17.5157 94.7261 16.3075L96.3398 8.61516H91.3566L89.5925 17.058C88.8421 20.7352 90.5534 22.7165 93.4206 22.7165C94.3206 22.7077 95.203 22.4617 95.9774 22.0032C96.7518 21.5446 97.3926 20.8898 97.8334 20.1048V20.1199ZM124.602 27.6246L125.353 23.7896H66.1708L65.4203 27.6246H124.602Z" fill="#040C14"/>
<path d="M129.968 12.3527C129.919 12.349 129.871 12.3354 129.827 12.313C129.782 12.2906 129.743 12.2596 129.711 12.2219C129.679 12.1842 129.655 12.1406 129.64 12.0935C129.625 12.0464 129.619 11.9968 129.623 11.9474C129.686 11.2791 129.606 10.605 129.39 9.96952C129.174 9.334 128.826 8.7512 128.369 8.25952C127.912 7.76781 127.356 7.37819 126.738 7.11619C126.12 6.8542 125.454 6.72574 124.782 6.73922C124.683 6.73922 124.588 6.6997 124.518 6.62932C124.447 6.55895 124.407 6.4635 124.407 6.36398C124.407 6.26446 124.447 6.16903 124.518 6.09866C124.588 6.02829 124.683 5.98875 124.782 5.98875C124.962 6.00038 125.143 6.00038 125.323 5.98875C126.656 5.84674 127.898 5.24451 128.834 4.28569C129.772 3.32686 130.345 2.07142 130.456 0.73547C130.464 0.641243 130.506 0.55335 130.576 0.489348C130.646 0.425346 130.737 0.389958 130.831 0.390261C130.881 0.394049 130.929 0.407559 130.973 0.430008C131.017 0.452457 131.056 0.483403 131.088 0.521068C131.121 0.558734 131.145 0.60237 131.16 0.649471C131.175 0.696572 131.181 0.746201 131.177 0.795509C131.114 1.46324 131.194 2.13664 131.409 2.77166C131.625 3.40668 131.972 3.98902 132.428 4.48062C132.885 4.97222 133.439 5.36199 134.056 5.62446C134.674 5.88694 135.339 6.01618 136.01 6.00376C136.109 6.00376 136.205 6.0433 136.275 6.11367C136.346 6.18404 136.385 6.27948 136.385 6.379C136.385 6.47852 136.346 6.57397 136.275 6.64434C136.205 6.7147 136.109 6.75423 136.01 6.75423C134.584 6.77778 133.217 7.32702 132.171 8.29656C131.126 9.26608 130.474 10.5876 130.344 12.0075C130.336 12.1018 130.294 12.1897 130.224 12.2537C130.154 12.3177 130.063 12.353 129.968 12.3527Z" fill="#040C14"/>
</g>
<defs>
<clipPath id="clip0_136_153">
<rect width="140" height="32" fill="white" transform="translate(0.400024)"/>
</clipPath>
</defs>
</svg>
