<svg width="136" height="32" viewBox="0 0 136 32" fill="none" xmlns="http://www.w3.org/2000/svg">
<g clip-path="url(#clip0_136_146)">
<path fill-rule="evenodd" clip-rule="evenodd" d="M8.21185 2V32H0.200012V2H8.21185Z" fill="white"/>
<path fill-rule="evenodd" clip-rule="evenodd" d="M12.2178 2H29.243C34.774 2 39.2578 6.47715 39.2578 12C39.2578 17.5229 34.774 22 29.243 22H20.2296V32H12.2178V2ZM20.2296 14H29.243C30.3492 14 31.246 13.1046 31.246 12C31.246 10.8954 30.3492 10 29.243 10H20.2296V14Z" fill="white"/>
<path fill-rule="evenodd" clip-rule="evenodd" d="M69.3021 2V17.5C69.3021 21.0898 72.2165 24 75.8117 24C79.4069 24 82.3215 21.0898 82.3215 17.5V2H90.3335V17.5C90.3335 25.5082 83.8319 32 75.8117 32C67.7917 32 61.2903 25.5082 61.2903 17.5V2H69.3021Z" fill="white"/>
<path fill-rule="evenodd" clip-rule="evenodd" d="M42.2621 16C42.2621 8.268 48.5394 2 56.2828 2H58.2858V10H56.2828C52.9642 10 50.2739 12.6863 50.2739 16V17C50.2739 25.2842 43.5482 32 35.2517 32H34.2502V24H35.2517C39.1234 24 42.2621 20.866 42.2621 17V16Z" fill="white"/>
<path d="M135.4 3C135.4 4.65686 134.055 6 132.395 6C130.736 6 129.391 4.65686 129.391 3C129.391 1.34314 130.736 0 132.395 0C134.055 0 135.4 1.34314 135.4 3Z" fill="white"/>
<path d="M98.9361 32L102.759 16.0144L105.602 25.6314C107.296 31.3672 115.433 31.3672 117.128 25.6314L119.97 16.0144L123.793 32H132.03L126.018 6.86355C124.589 0.885908 116.153 0.664582 114.41 6.55908L111.365 16.8666L108.318 6.55909C106.577 0.664616 98.1401 0.885877 96.7105 6.86354L90.6993 32H98.9361Z" fill="white"/>
</g>
<defs>
<clipPath id="clip0_136_146">
<rect width="135.2" height="32" fill="white" transform="translate(0.199951)"/>
</clipPath>
</defs>
</svg>
