<svg width="200" height="34" viewBox="0 0 200 34" fill="none" xmlns="http://www.w3.org/2000/svg">
<g clip-path="url(#clip0_160_102)">
<path d="M16.5 0C25.3368 0 32.5 7.1632 32.5 16V27.2C32.5 28.473 31.9943 29.6939 31.0941 30.5941C30.1939 31.4943 28.973 32 27.7 32H17.3V24.9808C17.3 23.3792 17.3976 21.72 18.2376 20.3568C18.839 19.3799 19.6434 18.5437 20.5964 17.905C21.5494 17.2664 22.6286 16.8401 23.7608 16.6552L24.0672 16.6056C24.1935 16.5624 24.3031 16.4808 24.3808 16.3722C24.4584 16.2636 24.5002 16.1335 24.5002 16C24.5002 15.8665 24.4584 15.7364 24.3808 15.6278C24.3031 15.5192 24.1935 15.4376 24.0672 15.3944L23.7608 15.3448C22.1065 15.0746 20.5789 14.2916 19.3937 13.1063C18.2084 11.9211 17.4254 10.3935 17.1552 8.7392L17.1056 8.4328C17.0624 8.30648 16.9808 8.19683 16.8722 8.11918C16.7636 8.04154 16.6335 7.9998 16.5 7.9998C16.3665 7.9998 16.2363 8.04154 16.1277 8.11918C16.0191 8.19683 15.9375 8.30648 15.8944 8.4328L15.8448 8.7392C15.6599 9.87142 15.2337 10.9506 14.595 11.9036C13.9563 12.8566 13.1201 13.661 12.1432 14.2624C10.78 15.1024 9.12076 15.2 7.51916 15.2H0.519165C0.937565 6.7352 7.93196 0 16.5 0Z" fill="#0061FF"/>
<path d="M0.5 16.8H7.5192C9.1208 16.8 10.78 16.8976 12.1432 17.7376C13.2088 18.3942 14.1058 19.2912 14.7624 20.3568C15.6024 21.72 15.7 23.3792 15.7 24.9808V32H5.3C4.02696 32 2.80606 31.4943 1.90589 30.5941C1.00571 29.6939 0.5 28.473 0.5 27.2L0.5 16.8ZM32.5 1.6C32.5 2.02435 32.3314 2.43131 32.0314 2.73137C31.7313 3.03143 31.3243 3.2 30.9 3.2C30.4757 3.2 30.0687 3.03143 29.7686 2.73137C29.4686 2.43131 29.3 2.02435 29.3 1.6C29.3 1.17565 29.4686 0.768687 29.7686 0.468629C30.0687 0.168571 30.4757 0 30.9 0C31.3243 0 31.7313 0.168571 32.0314 0.468629C32.3314 0.768687 32.5 1.17565 32.5 1.6Z" fill="#0061FF"/>
</g>
<path d="M44.66 7.152H53.332V10.384H51.572L53.492 17.936L54.484 22.16L55.284 18L57.588 9.52H62.1L64.34 17.936L65.14 22.16L66.036 17.936L67.988 10.384H66.004V7.152H74.196V10.384H71.892L66.932 26H62.644L60.724 17.52L59.796 13.424L58.772 17.424L56.596 26H52.34L47.412 10.384H44.66V7.152ZM87.043 24.24C86.083 25.0507 85.1017 25.648 84.099 26.032C83.0963 26.416 82.0617 26.608 80.995 26.608C79.395 26.608 77.987 26.288 76.771 25.648C75.5763 24.9867 74.6483 24.08 73.987 22.928C73.3257 21.7547 72.995 20.4107 72.995 18.896C72.995 17.3173 73.3043 15.952 73.923 14.8C74.563 13.6267 75.4377 12.72 76.547 12.08C77.6563 11.4187 78.947 11.088 80.419 11.088C81.891 11.088 83.171 11.3867 84.259 11.984C85.347 12.5813 86.1897 13.424 86.787 14.512C87.3843 15.5787 87.683 16.8373 87.683 18.288C87.683 18.544 87.6617 18.832 87.619 19.152C87.5977 19.472 87.5657 19.7813 87.523 20.08H76.515C76.579 20.912 76.8243 21.6053 77.251 22.16C77.6777 22.6933 78.211 23.088 78.851 23.344C79.5123 23.6 80.227 23.728 80.995 23.728C81.891 23.728 82.7443 23.5893 83.555 23.312C84.3657 23.0133 85.1017 22.5973 85.763 22.064L87.043 24.24ZM84.067 17.584C84.0457 16.5173 83.715 15.664 83.075 15.024C82.4563 14.3627 81.603 14.032 80.515 14.032C79.491 14.032 78.595 14.3627 77.827 15.024C77.0803 15.664 76.6643 16.5173 76.579 17.584H84.067ZM97.2665 26.608C96.0078 26.608 94.8132 26.4587 93.6825 26.16C92.5732 25.8613 91.5598 25.4133 90.6425 24.816V8.656L87.4745 7.568L88.5305 4.496L94.2585 6.48V12.048C95.3465 11.408 96.5092 11.088 97.7465 11.088C100.093 11.088 101.853 11.728 103.027 13.008C104.2 14.2667 104.787 16.1653 104.787 18.704C104.787 21.328 104.157 23.3013 102.899 24.624C101.64 25.9467 99.7625 26.608 97.2665 26.608ZM97.2345 23.696C98.5145 23.696 99.4745 23.28 100.115 22.448C100.755 21.616 101.075 20.368 101.075 18.704C101.075 17.1467 100.797 15.984 100.243 15.216C99.6878 14.448 98.8452 14.064 97.7145 14.064C96.3492 14.064 95.1972 14.416 94.2585 15.12V23.152C95.0692 23.5147 96.0612 23.696 97.2345 23.696ZM107.374 11.696H113.71V23.088H116.366V26H107.374V23.088H110.03V14.576H107.374V11.696ZM111.534 4.752C112.195 4.752 112.728 4.95467 113.134 5.36C113.539 5.76533 113.742 6.29867 113.742 6.96C113.742 7.62133 113.539 8.15467 113.134 8.56C112.728 8.96533 112.195 9.168 111.534 9.168C110.872 9.168 110.339 8.96533 109.934 8.56C109.55 8.15467 109.358 7.62133 109.358 6.96C109.358 6.29867 109.55 5.76533 109.934 5.36C110.339 4.95467 110.872 4.752 111.534 4.752ZM118.565 26V23.088H121.285V15.312L118.213 14.256L119.141 11.344L123.589 12.88C124.421 12.3253 125.264 11.888 126.117 11.568C126.97 11.248 127.984 11.088 129.157 11.088C130.48 11.088 131.546 11.344 132.357 11.856C133.189 12.368 133.797 13.0827 134.181 14C134.586 14.896 134.789 15.92 134.789 17.072V23.088H137.445V26H129.829V23.088H131.173V17.552C131.173 16.528 130.949 15.728 130.501 15.152C130.053 14.5547 129.317 14.256 128.293 14.256C127.674 14.256 127.056 14.3627 126.437 14.576C125.84 14.7893 125.328 15.0453 124.901 15.344V23.088H126.213V26H118.565ZM150.121 25.36C148.628 26.192 147.103 26.608 145.545 26.608C143.561 26.608 142.047 26.224 141.001 25.456C139.977 24.688 139.465 23.568 139.465 22.096C139.444 19.1307 141.396 17.648 145.321 17.648H148.905C148.905 16.3467 148.639 15.3973 148.105 14.8C147.572 14.1813 146.879 13.872 146.025 13.872C145.556 13.872 145.108 13.904 144.681 13.968C144.276 14.032 143.871 14.128 143.465 14.256L143.177 15.824L140.169 15.408L140.745 12.016C141.599 11.7173 142.463 11.4933 143.337 11.344C144.233 11.1733 145.161 11.088 146.121 11.088C148.212 11.088 149.801 11.6427 150.889 12.752C151.999 13.84 152.553 15.4507 152.553 17.584V22.896L155.241 23.76L154.249 26.768L150.121 25.36ZM145.417 20.016C144.692 20.016 144.137 20.1973 143.753 20.56C143.369 20.9227 143.177 21.424 143.177 22.064C143.177 23.28 144.009 23.888 145.673 23.888C146.847 23.888 147.924 23.5787 148.905 22.96V20.048L145.417 20.016ZM161.69 12.912C162.564 12.3147 163.418 11.8773 164.25 11.6C165.103 11.3013 165.935 11.152 166.746 11.152C167.556 11.152 168.314 11.2907 169.018 11.568L169.562 15.536L166.554 16.176L166.234 14.448C165.53 14.512 164.868 14.64 164.25 14.832C163.652 15.024 163.14 15.28 162.714 15.6L162.682 23.088H165.818V26H156.378V23.088H159.066V15.28L155.993 14.256L156.954 11.344L161.69 12.912Z" fill="white"/>
<path d="M170.959 26V23.088H173.647V8.368L170.575 7.44L171.471 4.496L177.295 6.32V23.088H179.983V26H170.959ZM184.769 33.744C184.342 33.744 183.894 33.6907 183.425 33.584C182.955 33.4987 182.465 33.3493 181.953 33.136L182.625 30.32C183.009 30.4693 183.35 30.576 183.649 30.64C183.969 30.7253 184.31 30.768 184.673 30.768C185.185 30.768 185.611 30.64 185.953 30.384C186.315 30.1493 186.657 29.7227 186.977 29.104C187.318 28.5067 187.702 27.664 188.129 26.576L192.897 14.576H191.233L191.393 11.696H198.913V14.576H196.449L190.561 28.432C189.771 30.3093 188.918 31.664 188.001 32.496C187.083 33.328 186.006 33.744 184.769 33.744ZM188.801 28.112L182.465 14.576H180.129V11.696H187.937V14.576H186.177L190.497 24.784L188.801 28.112Z" fill="#0061FF"/>
<defs>
<clipPath id="clip0_160_102">
<rect width="32" height="32" fill="white" transform="translate(0.5)"/>
</clipPath>
</defs>
</svg>
